<svg xmlns="http://www.w3.org/2000/svg" viewBox="0 0 1600 520">
  <defs>
    <linearGradient id="sky" x1="0" x2="0" y1="0" y2="1">
      <stop offset="0%" stop-color="#e9f7ef"/>
      <stop offset="100%" stop-color="#d7f0e0"/>
    </linearGradient>
    <filter id="s" x="-20%" y="-20%" width="140%" height="140%">
      <feGaussianBlur in="SourceAlpha" stdDeviation="4"/><feOffset dy="4"/>
      <feMerge><feMergeNode/><feMergeNode in="SourceGraphic"/></feMerge>
    </filter>
  </defs>
  <rect width="1600" height="520" fill="url(#sky)"/>
  <path d="M0 360 C 300 300, 600 420, 900 360 S 1400 300, 1600 380 L1600 520 L0 520 Z" fill="#cdebd0"/>
  <path d="M0 410 C 250 350, 650 470, 1000 410 S 1350 350, 1600 430 L1600 520 L0 520 Z" fill="#b9e0bf"/>
  <!-- casetta + recinto -->
  <g transform="translate(1050,300)">
    <rect x="-140" y="-70" width="280" height="140" rx="8" fill="#ffe0b2" stroke="#e0a96d" stroke-width="6" filter="url(#s)"/>
    <polygon points="-140,-70 0,-130 140,-70" fill="#efc07a" stroke="#d39a5f" stroke-width="6"/>
    <g stroke="#be8a4a" stroke-width="10">
      <line x1="-320" y1="60" x2="-60" y2="60"/>
      <line x1="60" y1="60" x2="320" y2="60"/>
      <line x1="-300" y1="20" x2="-300" y2="100"/>
      <line x1="-240" y1="20" x2="-240" y2="100"/>
      <line x1="-180" y1="20" x2="-180" y2="100"/>
      <line x1="300" y1="20" x2="300" y2="100"/>
      <line x1="240" y1="20" x2="240" y2="100"/>
      <line x1="180" y1="20" x2="180" y2="100"/>
    </g>
  </g>
  <!-- due galline in primo piano -->
  <g transform="translate(360,360)">
    <g filter="url(#s)">
      <ellipse cx="-80" cy="0" rx="70" ry="52" fill="#fff" stroke="#e3e3e3" stroke-width="4"/>
      <circle cx="-120" cy="-18" r="26" fill="#fff" stroke="#e3e3e3" stroke-width="4"/>
      <circle cx="-130" cy="-20" r="5" fill="#424242"/>
      <polygon points="-100,-6 -70,6 -100,16" fill="#ff7043"/>
      <circle cx="-130" cy="32" r="8" fill="#6d4c41"/>
      <path d="M-120,28 q-20,18 -44,6" stroke="#6d4c41" stroke-width="8" fill="none" stroke-linecap="round"/>
    </g>
    <g transform="translate(220,0)" filter="url(#s)">
      <ellipse cx="-80" cy="0" rx="70" ry="52" fill="#f6f6f6" stroke="#d9d9d9" stroke-width="4"/>
      <circle cx="-120" cy="-18" r="26" fill="#f6f6f6" stroke="#d9d9d9" stroke-width="4"/>
      <circle cx="-130" cy="-20" r="5" fill="#424242"/>
      <polygon points="-100,-6 -70,6 -100,16" fill="#ff7043"/>
      <circle cx="-130" cy="32" r="8" fill="#5d4037"/>
      <path d="M-118,30 q-18,18 -42,8" stroke="#5d4037" stroke-width="8" fill="none" stroke-linecap="round"/>
    </g>
  </g>
  <text x="80" y="130" font-family="Georgia, serif" font-size="70" fill="#215f36">Uova di Lombardia</text>
  <text x="80" y="190" font-family="Georgia, serif" font-size="28" fill="#2a6f3e">Galline libere · 100% biologico · Milano</text>
</svg>
